<?xml version="1.0" encoding="UTF-8"?>
<svg id="Layer_1" xmlns="http://www.w3.org/2000/svg" version="1.1" viewBox="0 0 1560 884.33">
  <!-- Generator: Adobe Illustrator 29.5.1, SVG Export Plug-In . SVG Version: 2.1.0 Build 141)  -->
  <defs>
    <style>
      .st0 {
        fill: #72c058;
      }

      .st1 {
        fill: #3b1036;
      }
    </style>
  </defs>
  <path class="st1" d="M717.83,333.21c20.83,8.04,38.84,19.86,54.04,35.49,15.19,15.63,27.02,34.41,35.49,56.32,8.46,21.93,12.7,46.56,12.7,73.91,0,34.74-7.06,64.79-21.16,90.19-14.11,25.39-33.32,45.04-57.63,58.93-24.32,13.89-51.88,20.83-82.7,20.83-16.93,0-33.11-2.83-48.51-8.46-15.41-5.64-29.09-13.45-41.02-23.44-11.94-9.98-21.6-21.7-28.97-35.16h-1.31v202.51h-59.9v-307.34c0-36.9,7.48-68.48,22.46-94.75,14.97-26.26,35.26-46.34,60.88-60.23,25.61-13.89,54.47-20.83,86.6-20.83,25.17,0,48.19,4.02,69.03,12.04ZM593.78,387.59c-16.71,9.99-29.95,24.09-39.72,42.32-9.77,18.23-14.65,39.72-14.65,64.47s4.88,46.99,14.65,65.44c9.76,18.46,23.01,32.67,39.72,42.65,16.71,9.99,35.27,14.97,55.68,14.97s39.5-5.21,56-15.62c16.49-10.42,29.63-24.74,39.39-42.98,9.77-18.23,14.65-39.5,14.65-63.81s-5-46.88-14.98-65.12c-9.99-18.23-23.34-32.33-40.04-42.32-16.72-9.98-35.28-14.98-55.68-14.98s-38.32,5-55.02,14.98Z"/>
  <path class="st1" d="M885.89,661.07V185.72h59.91v475.35h-59.91Z"/>
  <path class="st1" d="M1060.27,276.24c-10.85,0-20.3-4.01-28.32-12.04-8.04-8.03-12.04-17.47-12.04-28.32s4.01-20.29,12.04-28.33c8.03-8.03,17.47-12.04,28.32-12.04s20.29,4.02,28.33,12.04c8.03,8.04,12.04,17.48,12.04,28.33s-4.02,20.3-12.04,28.32c-8.04,8.04-17.48,12.04-28.33,12.04ZM1029.66,661.07v-332.09h60.56v332.09h-60.56Z"/>
  <path class="st1" d="M1170.05,661.07v-192.09c0-29.52,6.61-55.35,19.86-77.49,13.24-22.14,31.58-39.39,55.02-51.77,23.44-12.37,50.14-18.55,80.09-18.55s57.19,6.18,80.42,18.55c23.22,12.37,41.45,29.63,54.7,51.77,13.24,22.14,19.86,47.97,19.86,77.49v192.09h-59.91v-191.44c0-19.96-4.46-37.22-13.35-51.77-8.9-14.54-20.62-25.72-35.16-33.53-14.55-7.81-30.07-11.72-46.56-11.72s-32.02,3.91-46.56,11.72c-14.55,7.81-26.27,18.99-35.16,33.53-8.9,14.55-13.35,31.81-13.35,51.77v191.44h-59.91Z"/>
  <path class="st0" d="M207.45,240.71c6.6-10.32,13.7-20.3,21.07-29.67,6.71-8.48,13.75-16.64,20.96-24.23,4.77-5.05,9.65-9.87,14.59-14.42.11,2.99.22,5.99.39,9.04.5,9.43,1.5,19.3,2.94,29.28,1.55,10.98,3.61,22.35,6.21,33.88.28,1.22.55,2.44.89,3.66h61.61c-.5-1.77-.94-3.55-1.39-5.27-3.49-13.81-6.16-27.28-7.99-40.04-1.55-10.98-2.44-21.57-2.72-31.5-.22-8.21,0-16.08.67-23.29.5-5.66,1.28-10.87,2.27-15.58.83-3.94,1.66-6.66,2.22-8.26.28-.67.44-1.17.55-1.5.56-1.11,1-2.27,1.39-3.44.5-1.39.89-2.88,1.11-4.33.28-1.44.44-2.88.44-4.38.06-1.5,0-2.94-.17-4.38-.17-1.44-.5-2.94-.89-4.38-.39-1.39-.89-2.83-1.5-4.16-.56-1.28-1.28-2.61-2.05-3.88-.83-1.33-1.77-2.55-2.77-3.72-.89-1.05-2-2.11-3.16-3.11-1.11-.94-2.33-1.83-3.66-2.61-1.22-.78-2.55-1.5-3.94-2.05-1.33-.56-2.72-1.05-4.16-1.44-1.39-.33-2.88-.61-4.33-.78-1.05-.11-2.11-.17-3.16-.17-.44,0-.89,0-1.28.06-1.5.06-2.99.22-4.44.5-1.5.28-2.94.72-4.38,1.22-6.6,2.33-13.92,5.82-21.63,10.37-7.88,4.6-16.08,10.15-24.46,16.58-8.87,6.82-17.86,14.59-26.62,23.01-9.54,9.1-18.85,19.13-27.84,29.67-9.65,11.42-18.97,23.74-27.67,36.49-9.43,13.81-18.25,28.39-26.29,43.42-1.22,2.27-2.44,4.6-3.55,6.93h67.99c1.55-2.55,3.11-5.05,4.71-7.54Z"/>
  <path class="st1" d="M412.64,477.34c-1.61-12.2-3.99-24.96-7.21-37.99-3.38-13.59-7.71-27.84-12.87-42.31-5.38-15.08-11.81-30.89-19.19-46.92-3.22-7.1-6.32-14.14-9.26-21.13h-64.38c5.77,14.86,12.26,30.33,19.41,45.92,6.43,14.14,12.09,27.95,16.86,41.15,4.44,12.37,8.21,24.46,11.09,35.99,2.72,10.7,4.82,21.13,6.15,31,1.28,9.15,1.94,18.02,2.05,26.34.11,7.65-.28,15.08-1.16,22.07-.83,6.27-2.05,12.37-3.66,18.08-1.39,5.1-3.22,10.04-5.27,14.64-1.83,4.05-3.94,7.99-6.32,11.59-2,3.16-4.27,6.21-6.71,9.09-2.44,2.83-5.1,5.49-7.93,7.99-2.83,2.5-5.88,4.82-9.04,6.93-3.22,2.16-6.6,4.16-10.15,5.88-3.55,1.77-7.38,3.38-11.2,4.71-3.94,1.39-8.04,2.55-12.26,3.49-4.27.94-8.71,1.66-13.2,2.16-4.55.44-9.32.72-14.09.72-3.55,0-7.21-.22-10.76-.72-3.61-.44-7.21-1.16-10.7-2.05-3.55-.94-7.15-2.11-10.59-3.49-3.49-1.39-6.99-2.99-10.43-4.82-3.38-1.83-6.77-3.94-10.04-6.21-3.33-2.27-6.6-4.82-9.7-7.54-3.16-2.72-6.27-5.71-9.21-8.82-2.94-3.16-5.82-6.6-8.54-10.15-2.83-3.66-5.55-7.65-8.1-11.81-2.99-4.88-5.77-10.09-8.32-15.42-2.83-6.1-5.43-12.59-7.65-19.19-2.44-7.43-4.55-15.25-6.16-23.24-1.77-8.76-2.99-18.02-3.72-27.45-.78-10.26-.94-21.02-.44-31.94.56-11.87,1.83-24.23,3.88-36.82,2.16-13.48,5.27-27.56,9.15-41.76,3.38-12.37,7.21-24.51,11.48-36.32h-62.94c-2.16,6.77-4.21,13.64-6.1,20.52-4.49,16.53-8.1,32.94-10.65,48.8-2.38,14.97-3.88,29.78-4.49,44.03-.55,13.37-.33,26.62.72,39.32.94,11.87,2.61,23.51,4.88,34.72,2.16,10.26,4.88,20.35,8.15,30,2.94,8.76,6.38,17.3,10.26,25.4,3.38,7.21,7.21,14.25,11.31,20.91,3.55,5.71,7.32,11.26,11.26,16.47,3.99,5.21,8.26,10.2,12.64,14.92,4.38,4.66,9.04,9.15,13.86,13.25,4.77,4.16,9.76,7.99,14.86,11.53,5.16,3.49,10.48,6.77,15.86,9.65,5.43,2.88,11.04,5.49,16.69,7.65,5.71,2.22,11.54,4.16,17.36,5.66,5.88,1.5,11.92,2.66,17.91,3.44,6.04.78,12.2,1.17,18.25,1.17,7.04,0,14.03-.39,20.8-1.11,6.77-.72,13.53-1.89,20.02-3.33,6.49-1.44,12.92-3.33,19.08-5.49,6.21-2.22,12.26-4.77,17.97-7.65,5.82-2.88,11.42-6.16,16.69-9.76,5.32-3.55,10.43-7.54,15.2-11.76,4.77-4.27,9.32-8.87,13.48-13.7,4.21-4.94,8.1-10.15,11.59-15.58,3.77-5.82,7.15-12.09,10.09-18.52,3.22-7.1,6.05-14.59,8.26-22.29,2.38-8.32,4.27-17.08,5.49-26.06,1.33-9.59,2-19.63,1.94-29.95,0-10.87-.78-22.24-2.27-33.88Z"/>
</svg>